<svg class="svg-lctv-glyph" width="128px" height="92px" viewBox="0 0 128 92" version="1.1" xmlns="http://www.w3.org/2000/svg" xmlns:xlink="http://www.w3.org/1999/xlink">
    <g stroke="none" stroke-width="1" fill="none" fill-rule="evenodd">
        <g fill="#f1f1f1">
            <path class="screen" d="M124,0 L4,0 C1.8,0 0,1.8 0,4 L0,68 C0,70.2 1.8,72 4,72 L47.4,72 C47.95,72 48.4,72.45 48.4,73 C48.4,73.075 48.4,73.125 48.375,73.175 C46.9,79.375 42.175,84.325 36.1,86.125 L36.1,86.125 C34.875,86.5 34,87.65 34,88.975 C34,90.625 35.35,91.975 37,91.975 L91,91.975 C92.65,91.975 94,90.625 94,88.975 C94,87.625 93.1,86.475 91.875,86.1 L91.85,86.1 C85.8,84.3 81.125,79.375 79.625,73.2 C79.6,73.125 79.6,73.05 79.6,72.975 C79.6,72.425 80.05,71.975 80.6,71.975 L124,71.975 C126.2,71.975 128,70.175 128,67.975 L128,4 C128,1.8 126.2,0 124,0 L124,0 Z M77.95,86 L50.05,86 C49.5,86 49.05,85.55 49.05,85 C49.05,84.75 49.15,84.525 49.275,84.35 L49.275,84.35 C51.975,81.125 53.85,77.175 54.55,72.825 L54.55,72.825 C54.625,72.35 55.05,72.025 55.525,72.025 L72.425,72.025 C72.925,72.025 73.325,72.4 73.425,72.875 L73.425,72.875 C74.125,77.225 76,81.175 78.725,84.4 C78.725,84.4 78.725,84.4 78.725,84.425 C78.85,84.6 78.925,84.8 78.925,85.05 C78.95,85.55 78.5,86 77.95,86 L77.95,86 Z M122,65 C122,65.55 121.55,66 121,66 L7,66 C6.45,66 6,65.55 6,65 L6,7 C6,6.45 6.45,6 7,6 L121,6 C121.55,6 122,6.45 122,7 L122,65 L122,65 Z"></path>
            <path class="brackets" d="M74.85,9.85 C73.325,9.225 71.575,9.95 70.925,11.475 L51.55,58.225 C50.925,59.75 51.65,61.5 53.175,62.15 C53.55,62.3 53.95,62.375 54.325,62.375 C55.5,62.375 56.625,61.675 57.1,60.525 L76.475,13.775 C77.1,12.25 76.375,10.475 74.85,9.85 L74.85,9.85 Z M53.1,50.825 C53.725,49.3 53,47.55 51.475,46.9 L27.275,36.875 C27.275,36.875 27.25,36.875 27.25,36.85 C26.95,36.675 26.75,36.35 26.75,35.975 C26.75,35.575 27,35.225 27.35,35.075 L51.475,25.075 C53,24.45 53.725,22.675 53.1,21.15 C52.475,19.625 50.7,18.9 49.175,19.525 L16.15,33.2 C14.625,33.825 13.9,35.6 14.525,37.125 C14.55,37.225 14.6,37.3 14.65,37.375 L14.65,37.375 C14.7,37.45 14.725,37.525 14.775,37.6 C14.775,37.6 14.775,37.625 14.8,37.625 C14.85,37.7 14.9,37.775 14.95,37.85 L14.95,37.85 C15,37.925 15.075,38 15.15,38.075 L15.15,38.075 C15.2,38.125 15.275,38.2 15.35,38.25 L15.4,38.3 C15.45,38.35 15.525,38.4 15.575,38.425 C15.6,38.425 15.6,38.45 15.625,38.45 C15.7,38.5 15.775,38.55 15.85,38.6 C15.875,38.6 15.875,38.625 15.9,38.625 C15.975,38.65 16.025,38.7 16.1,38.725 C16.125,38.725 16.125,38.75 16.15,38.75 L49.15,52.425 C49.525,52.575 49.925,52.65 50.3,52.65 C51.5,52.675 52.625,51.975 53.1,50.825 L53.1,50.825 Z M113.675,35.9 L113.675,35.7 L113.675,35.625 C113.675,35.55 113.65,35.475 113.65,35.4 L113.65,35.35 C113.625,35.175 113.575,35 113.5,34.85 C113.425,34.675 113.35,34.525 113.25,34.35 C113.25,34.35 113.25,34.35 113.25,34.325 C113.2,34.25 113.15,34.175 113.1,34.125 L113.075,34.1 C113.025,34.025 112.975,33.975 112.9,33.925 L112.875,33.9 C112.825,33.85 112.75,33.8 112.7,33.725 C112.675,33.725 112.675,33.7 112.65,33.7 C112.575,33.65 112.525,33.6 112.45,33.55 L112.425,33.525 C112.25,33.4 112.075,33.3 111.875,33.225 L78.875,19.55 C77.35,18.925 75.6,19.65 74.95,21.175 C74.325,22.7 75.05,24.45 76.575,25.1 L100.725,35.1 C101.05,35.275 101.275,35.6 101.275,36 C101.275,36.4 101.025,36.775 100.675,36.925 L100.65,36.925 L76.55,46.9 C75.025,47.525 74.3,49.3 74.925,50.825 C75.4,51.975 76.525,52.675 77.7,52.675 C78.075,52.675 78.475,52.6 78.85,52.45 L111.875,38.775 L111.9,38.775 C111.975,38.75 112.05,38.7 112.15,38.65 L112.175,38.65 C112.25,38.6 112.35,38.55 112.425,38.5 L112.45,38.475 C112.525,38.425 112.575,38.375 112.625,38.325 C112.65,38.3 112.65,38.3 112.675,38.275 C112.75,38.225 112.8,38.175 112.85,38.1 L112.85,38.1 C112.925,38.025 112.975,37.975 113.025,37.9 L113.05,37.875 C113.1,37.825 113.15,37.75 113.175,37.7 C113.2,37.675 113.2,37.65 113.2,37.65 C113.225,37.6 113.275,37.525 113.3,37.475 C113.3,37.45 113.325,37.425 113.325,37.425 C113.375,37.35 113.4,37.275 113.45,37.175 L113.45,37.175 C113.5,37.075 113.525,37 113.55,36.9 C113.55,36.875 113.575,36.825 113.575,36.8 C113.6,36.75 113.6,36.675 113.625,36.625 C113.625,36.575 113.625,36.55 113.65,36.5 C113.65,36.45 113.675,36.375 113.675,36.325 L113.675,36.2 L113.675,36.025 L113.675,35.9 L113.675,35.9 Z"></path>
        </g>
    </g>
</svg>
