<svg class="header__logo-svg__1HNo1" viewBox="0 50 800 180" width="120" height="42" version="1"><defs><linearGradient id="a"><stop offset="0" stop-color="#ffc836"></stop><stop offset="1" stop-color="#ffe873"></stop></linearGradient><linearGradient id="d" x1="224" x2="-65" y1="145" y2="145" gradientUnits="userSpaceOnUse" xlink:href="#a"></linearGradient><linearGradient id="b"><stop offset="0" stop-color="#366a96"></stop><stop offset="1" stop-color="#3679b0"></stop></linearGradient><linearGradient id="c" x1="173" x2="27" y1="77" y2="76" gradientUnits="userSpaceOnUse" xlink:href="#b"></linearGradient></defs><path fill="#646464" d="M326 81c0-18-5-27-15-27-4-1-8 0-12 1l-6 4v41c6 4 12 6 17 6 10-1 16-9 16-25zm12 0c0 9-2 16-6 22-5 7-12 10-20 11-6 0-12-2-19-6v38l-11-4V58l7-6c6-4 14-6 23-6v1c9-1 15 3 20 10 4 6 6 14 6 24zM403 106c0 12-1 20-3 25-3 4-7 8-14 11-5 2-11 3-18 3l-1-6 13-3c5-2 9-4 11-8l2-17v-3c-7 4-15 5-23 5-5 0-10-1-14-5-4-3-6-8-6-13V50l10-4v45c0 5 2 9 5 11 3 3 7 4 12 4s10-2 16-6V48h10v58zM445 113h-3c-7 0-11-1-15-4-3-3-5-7-5-12V55h-7v-7h7V30l11-4v22h12v7h-12v42c0 4 1 6 3 8l9 2v6zM510 112h-11V71c0-4-1-8-3-11s-5-5-9-5c-5 0-11 2-19 8v49h-10V13l10-3v45c7-5 15-7 23-7 5 0 10 1 14 5 3 4 5 9 5 14v45zM567 79c0-7-2-12-4-17-3-5-8-8-14-8-12 0-18 9-18 25 0 7 1 13 4 18 3 7 8 10 14 10 12 0 18-10 18-28zm11 0c0 9-2 17-7 24s-13 10-22 10c-10 0-17-3-22-10s-7-15-7-24 2-17 7-23c6-6 13-10 22-10s16 4 22 10c5 6 7 14 7 23zM640 112h-11V68c0-4-1-8-4-11-3-2-7-4-12-4-5 1-10 2-14 5v54h-11V57l17-9 13-2 7 1c4 1 8 3 10 6 3 2 5 6 5 10v49z"></path><path fill="url(#c)" d="M78 47c0-14 3-21 23-24 14-3 32-3 48 0 13 2 24 11 24 24v45c0 13-11 24-24 24h-48c-16 0-29 14-29 29v22H55c-14 0-22-10-25-24-5-19-4-30 0-48 4-16 16-24 30-24h65v-6H78V47z" transform="translate(-22 -9) scale(1.20085)"></path><path fill="url(#d)" d="M173 191c0 14-12 20-24 24-18 5-32 4-48 0-12-4-23-11-23-24v-45c0-13 10-24 23-24h48c16 0 30-14 30-30V71h18c14 0 20 10 24 24 4 19 5 33 0 48-5 14-10 24-24 24h-72v6h48v18z" transform="translate(-22 -9) scale(1.20085)"></path><path d="M326 207c0 7-2 13-5 18-4 5-9 7-16 8-4 0-9-2-15-5v30l-8-3 1-66 5-5c5-3 11-4 19-4 6 0 11 2 15 8 3 5 4 11 4 19m-9 0c0-14-4-21-12-22l-9 2-5 2-1 33c5 3 10 5 14 5 8-1 12-8 13-20m62-2c0 8-2 14-6 19-4 6-10 8-17 8-8 0-13-2-17-8-4-5-6-11-6-19 0-7 3-13 7-18s10-7 17-7 12 2 17 7c4 5 6 11 5 18m-9 0c0-5-1-9-3-13s-5-6-10-7c-10 1-14 8-15 20 0 6 1 11 3 15 2 5 6 7 11 7 9 0 14-7 14-22m83-23l-15 48-7 2-12-40-12 38-7 2-15-49 8-3 12 39 11-36 8-3 12 39 12-39 5 2m44 45l-8 4-10 1c-5 0-10-1-13-4-6-5-9-12-8-21 0-7 1-14 5-18 3-6 9-9 15-9 13 0 19 8 19 25h-31c0 7 1 12 4 16s7 6 11 6 9-2 15-4l1 4m-8-27l-2-10c-2-3-5-5-8-5-7 0-11 5-12 15h22m50-20l-3 7-5-1c-5 0-9 2-13 5v40h-9l1-41c3-4 7-7 12-8l11-3 6 1m45 47l-9 4-9 1c -6 0-10-1-13-4-6-5-9-12-9-21 0-7 2-14 5-18 4-6 9-9 16-9 13 0 19 8 19 25h-31c-1 7 1 12 3 16 3 4 7 6 12 6 4 0 9-2 14-4l2 4m-8-27c0-4-1-7-3-10s-4-5-8-5c-7 0-11 5-12 15h23m61 23c-8 6-16 9-25 9-6 0-11-3-15-8-3-5-4-11-4-18s2-13 5-18c4-5 10-8 16-8l15 3 1-29 8-3-1 72m-9 0l1-33c-5-3-9-5-13-5-5 0-8 3-11 8-2 4-3 8-3 14l2 13c3 5 6 7 11 7 4 0 9-1 13-4" fill="#2e597d" font-family="FluxRegular" font-size="96" font-weight="400" style="text-align: start; line-height: 100%;"></path></svg>
